<svg width="16" height="16" viewBox="0 0 16 16" fill="none" xmlns="http://www.w3.org/2000/svg">
<path d="M12.0625 1.47722H10.5625C10.0339 1.47722 9.45231 1.47722 9.0625 1.47722L3.62124 1.47722C2.65249 1.54167 2.25184 1.7032 2.0625 2.47722L1.0625 6.97722C0.739511 7.87464 2.10467 8.67258 3.0625 8.67258L7.38571 8.67258C7.76438 8.67258 8.08737 8.998 8.02055 9.44671L6.5625 13.5144C6.43999 14.0865 6.49449 14.8081 7.0625 14.9988C7.57483 15.1895 8.30634 14.8794 8.5625 14.498L12.5625 8.97722" fill="white"/>
<path d="M12.0625 1.47722H10.5625C10.0339 1.47722 9.45231 1.47722 9.0625 1.47722L3.62124 1.47722C2.65249 1.54167 2.25184 1.7032 2.0625 2.47722L1.0625 6.97722C0.739511 7.87464 2.10467 8.67258 3.0625 8.67258L7.38571 8.67258C7.76438 8.67258 8.08737 8.998 8.02055 9.44671L6.5625 13.5144C6.43999 14.0865 6.49449 14.8081 7.0625 14.9988C7.57483 15.1895 8.30634 14.8794 8.5625 14.498L12.5625 8.97722" stroke="#1D9BF0" stroke-miterlimit="10"/>
<rect x="15.0625" y="9.49805" width="3" height="8" transform="rotate(-180 15.0625 9.49805)" fill="white" stroke="#1D9BF0"/>
</svg>
