<svg width="16" height="16" viewBox="0 0 16 16" fill="none" xmlns="http://www.w3.org/2000/svg">
<path d="M3.5 14.5208H5C5.52864 14.5208 6.11019 14.5208 6.5 14.5208H11.9413C12.91 14.4564 13.3107 14.2948 13.5 13.5208L14.5 9.02083C14.823 8.12341 13.4578 7.32547 12.5 7.32547H8.17679C7.79812 7.32547 7.47513 7.00004 7.54195 6.55133L9 2.48364C9.12251 1.91154 9.06801 1.18999 8.5 0.999289C7.98767 0.808588 7.25616 1.1186 7 1.5L3 7.02083" fill="white"/>
<path d="M3.5 14.5208H5C5.52864 14.5208 6.11019 14.5208 6.5 14.5208H11.9413C12.91 14.4564 13.3107 14.2948 13.5 13.5208L14.5 9.02083C14.823 8.12341 13.4578 7.32547 12.5 7.32547H8.17679C7.79812 7.32547 7.47513 7.00004 7.54195 6.55133L9 2.48364C9.12251 1.91154 9.06801 1.18999 8.5 0.999289C7.98767 0.808588 7.25616 1.1186 7 1.5L3 7.02083" stroke="#1D9BF0" stroke-miterlimit="10"/>
<rect x="0.5" y="6.5" width="3" height="8" fill="white" stroke="#1D9BF0"/>
</svg>
